<?xml version="1.0" encoding="UTF-8" standalone="no"?>
<svg
   xmlns:dc="http://purl.org/dc/elements/1.1/"
   xmlns:cc="http://creativecommons.org/ns#"
   xmlns:rdf="http://www.w3.org/1999/02/22-rdf-syntax-ns#"
   xmlns:svg="http://www.w3.org/2000/svg"
   xmlns="http://www.w3.org/2000/svg"
   xmlns:sodipodi="http://sodipodi.sourceforge.net/DTD/sodipodi-0.dtd"
   xmlns:inkscape="http://www.inkscape.org/namespaces/inkscape"
   id="svg2"
   width="1920"
   height="200"
   version="1.1"
   sodipodi:docname="logo2.svg"
   inkscape:version="0.92.3 (2405546, 2018-03-11)">
  <metadata
     id="metadata63">
    <rdf:RDF>
      <cc:Work
         rdf:about="">
        <dc:format>image/svg+xml</dc:format>
        <dc:type
           rdf:resource="http://purl.org/dc/dcmitype/StillImage" />
      </cc:Work>
    </rdf:RDF>
  </metadata>
  <defs
     id="defs61" />
  <sodipodi:namedview
     pagecolor="#ffffff"
     bordercolor="#666666"
     borderopacity="1"
     objecttolerance="10"
     gridtolerance="10"
     guidetolerance="10"
     inkscape:pageopacity="0"
     inkscape:pageshadow="2"
     inkscape:window-width="1920"
     inkscape:window-height="1017"
     id="namedview59"
     showgrid="false"
     inkscape:zoom="0.79166665"
     inkscape:cx="1188.1907"
     inkscape:cy="-35.018595"
     inkscape:window-x="-8"
     inkscape:window-y="-8"
     inkscape:window-maximized="1"
     inkscape:current-layer="g6" />
  <style
     id="style4">
    .s0{ font-family:'Swiss 721 Heavy'; font-weight:500; } .s1{ font-family:'Swiss 721 Light'; font-weight:300; } .s2{ fill:#009a93; }
  </style>
  <g
     id="g6">
    <path
       id="path8"
       d="m 1861.0421,110.16948 a 196.07,196.07 0 0 1 -196.07,196.07 196.07,196.07 0 0 1 -196.07,-196.07 196.07,196.07 0 0 1 196.07,-196.070006 196.07,196.07 0 0 1 196.07,196.070006 z"
       inkscape:connector-curvature="0"
       style="fill:#d9e5ec" />
    <g
       id="g10"
       transform="matrix(1.4114056,0,0,1.4224808,-223.21101,-47.868421)">
      <path
         id="path16"
         d="m 435.30449,86.552077 h 5.26284 V 73.272845 h 7.17374 v 13.279232 h 5.26285 V 55.040762 h -5.26285 v 11.186742 h -7.17374 V 55.040762 h -5.26284 z m 20.5799,-11.656582 c 0,7.813965 2.96383,12.468032 7.97729,12.468032 5.04124,0 8.00458,-4.696894 8.00458,-12.468032 0,-7.771388 -2.99128,-12.468032 -8.00458,-12.468032 -5.01363,0 -7.97729,4.654068 -7.97729,12.468032 z m 5.06887,0 c 0,-4.312707 1.08038,-6.575751 2.93604,-6.575751 1.85582,0 2.96382,2.264046 2.96382,6.576753 0,4.312708 -1.108,6.61933 -2.96496,6.61933 -1.85696,0 -2.93572,-2.304118 -2.93572,-6.616825 z m 27.5322,3.031418 h -4.8739 c -0.27619,2.264046 -1.05277,3.373529 -2.32648,3.373529 -1.74486,0 -2.54743,-2.091237 -2.54743,-6.361369 0,-4.397859 0.91467,-6.659401 2.60429,-6.659401 1.16324,0 1.9122,1.111987 2.18839,3.245801 h 4.986 c -0.30381,-5.635071 -2.99095,-9.051176 -7.14515,-9.051176 -4.70819,0 -7.72839,4.783549 -7.72839,12.725242 0,7.260475 2.96334,12.126672 7.4782,12.126672 4.15582,0 6.86896,-3.458681 7.36772,-9.394289 z m 2.4662,8.625415 h 4.93077 V 74.085047 c 0,-3.79929 0.72134,-5.592495 2.49381,-5.592495 1.96744,0 2.07791,2.051166 2.07791,6.363874 v 11.700911 h 4.95839 V 70.543718 c 0,-5.166734 -1.71724,-7.899117 -4.87391,-7.899117 -2.04866,0 -3.48971,1.154564 -4.62533,3.628986 V 55.000941 h -4.95839 v 31.51382 z m 17.06192,-7.130243 c 0.25019,4.911277 2.9081,7.856541 7.45058,7.856541 4.65458,0 7.25724,-3.115568 7.25724,-8.069421 0,-2.133814 -0.47114,-3.714138 -1.57914,-4.993925 -0.66448,-0.726298 -2.13315,-1.450092 -4.37515,-2.434351 -2.07628,-0.939178 -3.324,-1.152059 -3.324,-2.774959 0,-1.279787 0.66448,-2.006085 1.85696,-2.006085 1.27371,0 1.99505,0.726298 2.18838,2.306622 h 4.73744 c -0.27619,-4.568164 -2.65953,-6.874786 -7.06229,-6.874786 -4.15419,0 -6.56353,2.947768 -6.56353,7.601084 0,3.716642 1.52391,5.337038 4.93077,7.045091 2.71477,1.367443 4.34915,1.282291 4.34915,3.160648 0,1.41002 -0.85781,2.264046 -2.24362,2.264046 -1.66038,0 -2.51981,-1.02433 -2.63029,-3.072992 h -4.95838 z m 31.4107,-1.495172 h -4.87391 c -0.27619,2.264046 -1.05276,3.373529 -2.32648,3.373529 -1.74485,0 -2.54742,-2.091237 -2.54742,-6.361369 0,-4.397859 0.91467,-6.659401 2.60429,-6.659401 1.16324,0 1.91219,1.111987 2.18838,3.245801 h 4.98601 c -0.30381,-5.635071 -2.99096,-9.051176 -7.14515,-9.051176 -4.70819,0 -7.72839,4.783549 -7.72839,12.725242 0,7.260475 2.96496,12.126672 7.47982,12.126672 4.15582,0 6.87058,-3.458681 7.36772,-9.394289 z m 2.43858,8.625415 h 4.93076 V 74.085047 c 0,-3.79929 0.72134,-5.592495 2.49382,-5.592495 1.96743,0 2.07791,2.051166 2.07791,6.363874 v 11.700911 h 4.95838 V 70.543718 c 0,-5.166734 -1.71724,-7.899117 -4.8739,-7.899117 -2.04867,0 -3.48972,1.154564 -4.62534,3.628986 V 55.000941 h -4.95839 v 31.51382 z m 32.10279,-23.269085 h -4.95676 v 12.469785 c 0,3.801794 -0.6921,5.594999 -2.46457,5.594999 -1.68963,0 -2.07791,-1.580324 -2.07791,-5.036501 V 63.288252 h -4.95839 V 79.30187 c 0,5.20931 1.71724,7.856541 5.04124,7.856541 1.93982,0 3.37924,-1.194635 4.5701,-3.756714 v 3.203225 h 4.84791 v -23.27159 z m 3.40686,23.271589 h 4.95839 v -31.51407 h -4.95677 v 31.511315 z m 17.86611,-7.343123 c -0.33142,1.665476 -1.19085,2.562079 -2.51981,2.562079 -1.77247,0 -2.71476,-1.750629 -2.71476,-5.039006 h 10.22058 c 0.0276,-0.42576 0.0276,-0.939178 0.0276,-1.364939 0,-8.111997 -2.96334,-12.895546 -7.69915,-12.895546 -4.59772,0 -7.58867,4.740973 -7.58867,12.554937 0,7.601085 2.93572,12.211825 7.5903,12.211825 3.878,0 6.56515,-2.945264 7.45057,-8.026846 h -4.73743 z m -5.37267,-6.789634 c 0.19496,-3.115568 1.21848,-4.781044 2.82525,-4.781044 1.71724,0 2.79762,1.750628 2.82524,4.783548 h -5.62287 z m 21.6044,14.132757 h 5.15172 V 76.64963 l 1.77411,-2.732383 5.73333,12.64009 h 6.25972 l -8.47409,-18.275161 8.28239,-13.236154 h -6.28734 l -7.28487,11.998943 V 55.046022 h -5.15172 v 31.511315 z m 19.05698,-11.65583 c 0,7.813964 2.96333,12.469785 7.97696,12.469785 5.04124,0 8.00457,-4.695892 8.00457,-12.467281 0,-7.771388 -2.99095,-12.467281 -8.00457,-12.467281 -5.01363,0 -7.97696,4.655821 -7.97696,12.469786 z m 5.06886,0 c 0,-4.312708 1.08038,-6.574249 2.93572,-6.574249 1.85533,0 2.96333,2.264046 2.96333,6.576753 0,4.312707 -1.108,6.61933 -2.96333,6.61933 -1.85534,0 -2.93572,-2.304118 -2.93572,-6.616825 z m 13.5722,11.658335 h 4.93077 V 74.090056 c 0,-3.79929 0.72134,-5.592495 2.49382,-5.592495 1.9658,0 2.0779,2.051166 2.0779,6.363873 v 11.698407 h 4.95839 V 71.445329 c 0,-5.978183 -1.35657,-8.710567 -5.04124,-8.710567 -2.07629,0 -3.54496,1.239716 -4.5701,3.759219 v -3.20072 h -4.84629 V 86.56485 Z m 17.06192,-7.130243 c 0.2502,4.911277 2.9081,7.856541 7.45058,7.856541 4.65458,0 7.25725,-3.115568 7.25725,-8.069422 0,-2.133813 -0.47115,-3.714137 -1.57915,-4.996429 -0.66448,-0.726298 -2.13315,-1.450091 -4.37677,-2.43435 -2.07628,-0.939179 -3.32238,-1.152059 -3.32238,-2.77496 0,-1.279787 0.66448,-2.006085 1.85696,-2.006085 1.27372,0 1.99505,0.726298 2.18839,2.306623 h 4.73581 c -0.27619,-4.568164 -2.65953,-6.874787 -7.06229,-6.874787 -4.15419,0 -6.56353,2.947768 -6.56353,7.601085 0,3.714137 1.52228,5.337038 4.92914,7.04509 2.71477,1.367444 4.34915,1.282292 4.34915,3.160649 0,1.410019 -0.8578,2.264046 -2.24362,2.264046 -1.662,0 -2.51981,-1.024331 -2.63028,-3.072992 h -4.95839 z m 15.87106,-11.570678 h 2.02268 v 9.008599 c 0,7.2179 0.554,10.163163 4.45962,10.163163 0.96991,0 1.96743,-0.170304 2.96333,-0.468337 V 81.69114 c -0.22095,0.04258 -0.4419,0.04258 -0.63685,0.04258 -1.5499,0 -1.85534,-1.02433 -1.85534,-3.79929 V 67.85892 h 2.52144 v -4.61074 h -2.52144 v -6.576754 h -4.95838 v 6.576754 h -2.02105 v 4.61074 z m 25.78784,18.700921 v -0.896603 c -0.49876,-0.383184 -0.74733,-1.6229 -0.74733,-3.671561 v -8.795719 c 0,-3.203225 -0.0552,-5.549919 -0.9959,-7.473356 -1.05277,-2.048662 -2.9081,-3.030416 -5.53838,-3.030416 -4.29229,0 -6.61877,2.519503 -7.11753,7.813964 h 4.54248 c 0.19495,-1.708052 1.02514,-2.64723 2.43858,-2.64723 1.27533,0 1.96743,0.683721 1.96743,2.051165 v 0.555994 c 0,1.793205 -1.88295,1.452596 -5.37267,2.732383 -2.65953,0.984259 -4.0161,3.330953 -4.0161,7.217899 0,4.099827 1.77248,6.832211 4.7082,6.832211 1.88295,0 3.40686,-1.024331 4.79104,-3.158145 0.0552,0.896603 0.13972,1.665477 0.2502,2.391775 h 5.04124 z m -5.42953,-10.972109 v 2.689807 c 0,2.434351 -1.19086,4.057251 -2.88048,4.057251 -1.108,0 -1.82771,-1.152059 -1.82771,-2.774959 0,-1.407516 0.49876,-2.091238 1.63438,-2.604655 1.108,-0.468337 2.216,-0.553489 3.07381,-1.407516 z m 8.00458,10.974613 h 4.93077 V 74.09256 c 0,-3.799289 0.72133,-5.592494 2.49381,-5.592494 1.96581,0 2.07791,2.051166 2.07791,6.363873 V 86.56485 h 4.95839 V 71.450338 c 0,-5.978183 -1.35657,-8.710567 -5.04125,-8.710567 -2.07628,0 -3.54495,1.237211 -4.5701,3.756714 v -3.20072 h -4.84628 v 23.27159 z m 16.5924,0 h 13.93287 v -5.594999 h -7.69915 l 7.45221,-12.169248 v -5.464766 h -13.18392 v 5.464766 h 7.0363 l -7.50582,12.169248 v 5.594999 z"
         class="s0"
         font-weight="500"
         inkscape:connector-curvature="0"
         style="font-weight:500;font-family:'Swiss 721 Heavy';stroke-width:2.01714158" />
      <path
         id="path18"
         d="m 439.93015,141.42013 h 1.8836 v -28.90716 h 6.37052 v -2.60465 h -14.62464 v 2.60465 h 6.37052 z m 7.5617,-13.02327 c 0.1662,-4.99568 2.04964,-7.98427 4.68106,-7.98427 2.63029,0 4.40277,2.94601 4.54248,7.98427 h -9.25229 z m 0,2.13506 h 10.99635 v -0.8966 c 0,-7.38695 -2.3541,-11.57143 -6.28734,-11.57143 -4.0161,0 -6.48067,4.39786 -6.48067,12.04102 0,7.55776 2.43858,11.87021 6.42705,11.87021 3.37925,0 5.76096,-3.03141 6.14925,-7.64291 h -1.71724 c -0.33143,3.32845 -2.02105,5.29447 -4.32153,5.29447 -2.85286,0 -4.76343,-3.33096 -4.76343,-9.01111 v -0.12773 z m 24.18075,3.03167 c -0.36018,3.84287 -2.02202,6.10591 -4.29326,6.10591 -2.88048,0 -4.84726,-3.50125 -4.84726,-9.69232 0,-6.10591 1.96662,-9.56459 4.79186,-9.56459 2.216,0 3.90562,2.13456 4.18246,5.46526 h 1.662 c -0.16571,-4.65431 -2.49219,-7.81396 -5.81619,-7.81396 -4.0161,0 -6.56353,4.48301 -6.56353,12.0841 0,7.38645 2.52143,11.78456 6.45468,11.78456 3.48971,0 5.81782,-3.20248 6.14924,-8.41179 h -1.71724 z m 4.51486,7.85654 h 1.71724 v -13.40746 c 0,-4.69689 1.85582,-7.60033 4.54248,-7.60033 3.10224,0 3.62862,2.30412 3.62862,7.17282 v 13.79214 h 1.71724 v -13.83472 c 0,-2.77496 0,-4.78355 -0.61086,-6.27622 -0.80419,-1.96601 -2.40933,-3.20322 -4.40439,-3.20322 -2.13314,0 -3.79514,1.40751 -4.90315,4.09732 v -12.29697 h -1.71723 v 31.51131 z m 15.37263,0 h 1.71723 v -13.40746 c 0,-4.73947 1.80043,-7.60033 4.48725,-7.60033 3.01906,0 3.65608,2.17639 3.65608,6.78713 v 14.21791 h 1.71724 v -14.51845 c 0,-2.39177 -0.0276,-4.22756 -0.60924,-5.595 -0.80338,-2.00859 -2.38204,-3.20322 -4.43201,-3.20322 -2.16027,0 -3.7945,1.40751 -4.90233,4.22755 v -3.63149 h -1.66201 v 22.75817 z m 15.51104,0 h 1.71724 v -22.75817 h -1.71724 z m 0,-27.58354 h 1.71724 v -3.92827 h -1.71724 z m 5.65048,27.58354 h 1.71724 v -8.53976 l 2.79762,-4.09908 5.48428,12.68167 h 1.96662 l -6.25972,-14.43079 5.56714,-8.32488 h -2.18838 l -7.36772,11.05977 v -19.81041 h -1.71724 v 31.51132 z m 14.70782,6.10591 c 1.385,-0.8966 1.88344,-2.22021 1.88344,-4.73947 v -5.25188 h -1.88344 v 3.88544 h 0.8864 v 1.53725 c 0,1.36619 -0.2216,2.17764 -0.8864,2.90344 v 1.66547 z m 17.72705,-6.10591 h 2.02202 l 4.70868,-28.01006 4.62566,28.01006 h 2.04964 l 5.3743,-31.51181 h -1.8001 l -4.59772,27.15653 -4.45962,-27.15653 h -2.29886 l -4.51486,27.15653 -4.54248,-27.15653 h -1.85534 l 5.29144,31.51181 z m 21.60472,0 h 1.71724 v -22.75817 h -1.71724 z m 0,-27.58354 h 1.71724 v -3.92827 h -1.71724 z m 5.65049,27.58354 h 1.71723 v -12.63884 c 0,-5.25188 1.52343,-7.98477 4.45963,-7.98477 h 0.22144 v -2.73238 h -0.19496 c -2.13315,0 -3.65705,1.40877 -4.54248,4.56816 v -3.97059 h -1.662 v 22.75817 z m 10.96856,-29.29135 h -1.71724 v 6.53293 h -2.02202 v 2.13381 h 2.02202 v 16.56711 c 0,3.11557 0.41542,4.61074 2.32648,4.61074 0.6648,0 1.3296,-0.1703 2.1052,-0.47084 v -2.09374 c -0.6648,0.21288 -1.19086,0.42576 -1.662,0.42576 -0.94164,0 -1.08039,-0.76888 -1.08039,-2.43435 v -16.56711 h 2.74239 v -2.13381 h -2.74239 v -6.53168 z m 4.84726,22.20343 c 0.0829,4.6959 2.29886,7.72631 5.73334,7.72631 3.46242,0 5.62286,-2.77496 5.62286,-6.53418 0,-3.67156 -1.35706,-5.20931 -4.48724,-6.40644 -3.0743,-1.15457 -4.7917,-1.4526 -4.7917,-4.78355 0,-2.26405 1.2188,-3.88695 3.29638,-3.88695 2.32648,0 3.71132,1.83578 3.8499,4.90877 h 1.77248 c -0.19496,-4.52559 -2.24362,-7.2179 -5.56763,-7.2179 -3.04781,0 -5.09648,2.73239 -5.09648,6.57425 0,3.92702 1.8001,5.20931 5.31743,6.53168 2.60267,0.98175 3.98848,1.45009 3.98848,4.27013 0,2.51699 -1.41343,4.26762 -3.96086,4.26762 -2.27124,0 -3.878,-2.22147 -3.90562,-5.37961 h -1.77248 z m 24.70697,-0.76887 c -0.36019,3.84187 -2.02202,6.10591 -4.29326,6.10591 -2.88048,0 -4.84727,-3.50126 -4.84727,-9.69232 0,-6.10591 1.96744,-9.56459 4.79268,-9.56459 2.216,0 3.90562,2.13381 4.18343,5.46476 h 1.66201 c -0.16572,-4.65582 -2.4922,-7.81396 -5.8162,-7.81396 -4.0161,0 -6.56353,4.48301 -6.56353,12.08409 0,7.3857 2.52144,11.78356 6.45468,11.78356 3.48972,0 5.81782,-3.20322 6.14924,-8.41253 h -1.71723 z m 4.51486,7.85654 h 1.71724 v -13.40896 c 0,-4.6984 1.85582,-7.60109 4.54248,-7.60109 3.10224,0 3.62862,2.30412 3.62862,7.17282 v 13.79215 h 1.71724 v -13.83472 c 0,-2.77496 0,-4.78355 -0.60924,-6.27622 -0.80338,-1.96601 -2.40982,-3.20323 -4.40438,-3.20323 -2.1325,0 -3.7945,1.40752 -4.90234,4.09733 v -12.29698 h -1.71724 v 31.51132 z m 24.98396,-3.28838 v 0.34061 c 0,2.09124 0.72004,3.15815 2.10504,3.15815 0.24922,0 0.69242,-0.0426 1.21848,-0.21288 v -1.96602 c -0.27667,0.0426 -0.49827,0.0426 -0.63686,0.0426 -1.02482,0 -1.05243,-0.59857 -1.05243,-2.09374 v -12.38464 c 0,-4.52558 -1.88361,-6.87478 -5.40127,-6.87478 -3.60084,0 -5.7889,2.90269 -5.8443,7.34312 h 1.68962 c 0.11048,-3.33095 1.52326,-5.039 4.1823,-5.039 2.71477,0 3.65624,1.53524 3.65624,4.95134 0,2.30412 -0.49876,2.26155 -2.57586,2.94527 -1.96662,0.25545 -3.73942,0.29803 -5.31808,1.40751 -1.52342,1.10949 -2.35442,3.073 -2.35442,5.67765 0,3.92952 1.88344,6.57675 4.90266,6.57675 2.07629,0 3.904,-1.28229 5.45553,-3.84437 z m -0.0832,-8.66799 0.0276,3.20323 c 0,4.39786 -2.13266,7.00251 -5.20695,7.00251 -2.04997,0 -3.32401,-1.70805 -3.32401,-4.31271 0,-2.30662 1.13562,-3.92952 3.29606,-4.82612 2.16077,-0.1703 3.96086,-0.34311 5.20858,-1.11199 z m 6.53689,11.95637 h 1.71724 V 120.8381 h 2.6579 v -2.13382 h -2.65953 v -3.88694 c 0,-2.00859 0.41428,-2.86262 1.74486,-2.86262 0.24857,0 0.58162,0.12773 0.94066,0.17031 v -2.3492 c -0.30543,-0.0851 -0.60924,-0.13023 -0.88705,-0.13023 -2.38171,0 -3.48971,1.45259 -3.48971,4.91127 v 4.18498 h -2.16077 v 2.13382 h 2.16077 v 20.57927 z m 8.97286,-29.29235 h -1.71724 v 6.53167 h -2.02267 v 2.13382 h 2.02104 v 16.56711 c 0,3.11556 0.41591,4.61074 2.32648,4.61074 0.66448,0 1.32895,-0.17031 2.10553,-0.47085 v -2.09374 c -0.6661,0.21288 -1.19086,0.42576 -1.662,0.42576 -0.94229,0 -1.08039,-0.76887 -1.08039,-2.43435 v -16.56711 h 2.74239 v -2.13381 h -2.74239 v -6.53167 z m 24.56773,6.53167 h -1.71724 v 13.44904 c 0,4.69589 -1.77248,7.59858 -4.5701,7.59858 -2.71476,0 -3.60181,-2.00859 -3.60181,-6.36387 V 118.6542 h -1.71724 v 15.28481 c 0,5.33704 1.662,8.06942 5.01362,8.06942 2.216,0 3.82114,-1.36744 4.95676,-4.27013 v 3.62899 h 1.66201 v -22.76068 z m 3.82277,22.75818 h 1.71724 v -13.40897 c 0,-4.74097 1.80009,-7.60108 4.48724,-7.60108 3.01857,0 3.65543,2.17639 3.65543,6.78713 v 14.21791 h 1.71724 v -14.51845 c 0,-2.39177 -0.0276,-4.22755 -0.60924,-5.595 -0.80419,-2.00608 -2.38334,-3.20322 -4.432,-3.20322 -2.16077,0 -3.79515,1.41002 -4.90315,4.22755 v -3.62898 h -1.66201 v 22.75817 z m 27.97459,-31.51132 h -1.71724 v 12.72274 c -1.05276,-2.99035 -2.77,-4.52559 -5.09648,-4.52559 -3.96086,0 -6.56515,4.44044 -6.56515,11.95386 0,7.55601 2.54743,11.95387 6.45305,11.95387 2.29886,0 4.07134,-1.49518 5.20696,-4.48301 v 3.84186 h 1.71724 v -31.5063 z m -11.60639,20.15352 c 0,-6.23364 1.85533,-9.64975 5.04124,-9.64975 3.15667,0 5.012,3.41611 5.012,9.64975 0,6.27621 -1.82771,9.64974 -5.01362,9.64974 -3.13067,0 -5.04125,-3.50125 -5.04125,-9.64974 z m 39.02699,11.3578 h 1.49466 v -16.18393 h -8.53096 v 2.60466 h 6.73087 v 0.12773 c 0,7.3857 -2.63191,11.74098 -7.14677,11.74098 -4.34915,0 -7.14677,-5.37961 -7.14677,-14.17784 0,-9.0111 2.71314,-13.8773 7.36772,-13.8773 3.48971,0 5.95428,2.81754 6.50829,7.3857 h 1.93819 c -0.60924,-6.27622 -3.65706,-9.99286 -8.47573,-9.99286 -5.59524,0 -9.27991,6.10591 -9.27991,16.52203 0,10.41862 3.51733,16.69483 9.16781,16.69483 3.26877,0 5.87144,-2.39177 7.14677,-6.44902 l 0.19334,5.54992 z m 6.25972,-13.02328 c 0.16571,-4.99643 2.04866,-7.98427 4.68057,-7.98427 2.63191,0 4.40439,2.94527 4.54248,7.98427 h -9.25067 z m 0,2.13382 h 10.99553 v -0.89661 c 0,-7.3882 -2.35572,-11.57318 -6.28734,-11.57318 -4.01772,0 -6.48229,4.39786 -6.48229,12.03902 0,7.556 2.43695,11.86871 6.42543,11.86871 3.37924,0 5.76096,-3.03042 6.14924,-7.64366 h -1.71724 c -0.33305,3.32844 -2.02267,5.29446 -4.32153,5.29446 -2.85286,0 -4.76505,-3.33095 -4.76505,-9.01111 v -0.12772 z m 13.40649,3.79929 c 0.0828,4.69589 2.29886,7.7263 5.73334,7.7263 3.46209,0 5.62286,-2.77496 5.62286,-6.53417 0,-3.67407 -1.3582,-5.20931 -4.48724,-6.40645 -3.07544,-1.15206 -4.79268,-1.4526 -4.79268,-4.78355 0,-2.26405 1.21848,-3.88695 3.29639,-3.88695 2.32648,0 3.71066,1.83578 3.84876,4.90877 h 1.77248 c -0.19334,-4.52558 -2.24363,-7.2179 -5.56763,-7.2179 -3.04782,0 -5.09648,2.73239 -5.09648,6.57425 0,3.92702 1.8001,5.20931 5.31743,6.53168 2.60267,0.98175 3.98848,1.45084 3.98848,4.27013 0,2.518 -1.41343,4.26863 -3.96086,4.26863 -2.27124,0 -3.878,-2.22047 -3.90562,-5.37962 h -1.77248 z m 16.81172,-22.20469 h -1.71723 v 6.53168 h -2.02268 v 2.13381 h 2.02105 v 16.56711 c 0,3.11556 0.41428,4.61074 2.32648,4.61074 0.66447,0 1.32895,-0.17031 2.10553,-0.47085 v -2.09374 c -0.6661,0.21288 -1.19086,0.42576 -1.66201,0.42576 -0.94228,0 -1.08038,-0.76887 -1.08038,-2.43435 v -16.5671 h 2.74239 v -2.13382 h -2.74239 v -6.53167 z m 15.09449,26.00397 v 0.34061 c 0,2.09124 0.71971,3.15815 2.1039,3.15815 0.24857,0 0.6921,-0.0426 1.21848,-0.21539 v -1.96601 c -0.27781,0.0426 -0.49876,0.0426 -0.63686,0.0426 -1.02514,0 -1.05276,-0.59857 -1.05276,-2.09375 v -12.38215 c 0,-4.52558 -1.88458,-6.87478 -5.40191,-6.87478 -3.60182,0 -5.7902,2.90269 -5.84544,7.34312 h 1.68962 c 0.11048,-3.33095 1.52228,-5.039 4.18181,-5.039 2.71477,0 3.65706,1.53774 3.65706,4.95135 0,2.30662 -0.49877,2.26154 -2.57668,2.94526 -1.96743,0.25546 -3.73991,0.29803 -5.31905,1.40751 -1.52391,1.10999 -2.3541,3.07425 -2.3541,5.67865 0,3.92953 1.88295,6.57676 4.90153,6.57676 2.0779,0 3.90562,-1.28179 5.45715,-3.84362 z m -0.0829,-8.66799 0.0276,3.20072 c 0,4.39786 -2.13314,7.00252 -5.20858,7.00252 -2.05029,0 -3.324,-1.70805 -3.324,-4.31271 0,-2.30662 1.13562,-3.92952 3.29638,-4.82612 2.15914,-0.17031 3.96086,-0.34312 5.20696,-1.10949 z m 5.84382,11.95387 h 1.71724 v -31.51132 h -1.71724 v 31.51382 z m 7.92172,-29.29235 h -1.71724 v 6.53418 h -2.02267 v 2.13381 h 2.02105 v 16.56711 c 0,3.11556 0.41428,4.61074 2.32647,4.61074 0.66448,0 1.32895,-0.17031 2.10553,-0.47085 v -2.09374 c -0.66448,0.21288 -1.19086,0.42576 -1.662,0.42576 -0.94229,0 -1.08038,-0.76887 -1.08038,-2.43435 v -16.5671 h 2.74238 v -2.13382 h -2.74238 v -6.53167 z m 17.00668,6.53418 h -1.71724 v 13.44903 c 0,4.69589 -1.77247,7.59858 -4.5701,7.59858 -2.71476,0 -3.60181,-2.00608 -3.60181,-6.36137 v -14.68875 h -1.71724 v 15.28482 c 0,5.33703 1.662,8.06942 5.012,8.06942 2.216,0 3.82276,-1.36745 4.95838,-4.27013 v 3.62898 h 1.66201 v -22.75817 z m 3.85039,22.75817 h 1.71724 v -13.40646 c 0,-4.74097 1.80009,-7.60109 4.48724,-7.60109 3.01857,0 3.65543,2.17639 3.65543,6.78713 v 14.21791 h 1.71724 v -14.51594 c 0,-2.39177 -0.0276,-4.22755 -0.60924,-5.595 -0.80419,-2.00859 -2.38171,-3.20322 -4.432,-3.20322 -2.16077,0 -3.79515,1.41002 -4.90315,4.22755 v -3.62898 h -1.66201 v 22.75817 z m 27.97459,-22.75817 h -1.71724 v 3.92701 c -1.13562,-3.03292 -2.85286,-4.52558 -5.1241,-4.52558 -3.93324,0 -6.53753,4.48301 -6.53753,11.95386 0,7.55851 2.54743,11.95637 6.53591,11.95637 2.24362,0 3.96086,-1.49518 5.1241,-4.52559 v 2.81753 c 0,5.33704 -1.77248,8.112 -5.31743,8.112 -2.49382,0 -3.96086,-1.6229 -4.1282,-4.35528 h -1.77248 c 0.19333,4.01467 2.40934,6.6619 5.92667,6.6619 4.59772,0 7.00705,-3.54383 7.00705,-10.50377 v -21.56354 z m -11.60639,11.40037 c 0,-6.27622 1.88295,-9.64975 5.04124,-9.64975 3.12905,0 5.01363,3.41611 5.01363,9.64975 0,6.23364 -1.9122,9.64974 -5.01363,9.64974 -3.04619,0 -5.04124,-3.50125 -5.04124,-9.64974 z"
         class="s1"
         font-weight="300"
         inkscape:connector-curvature="0"
         style="font-weight:300;font-family:'Swiss 721 Light';stroke-width:2.01714158" />
    </g>
    <g
       id="g26"
       fill="#000134">
      <path
         id="path28"
         d="M210.51 65.62c.49 0 .89-.4.89-.89s-.4-.88-.89-.88-.89.4-.89.88c0 .49.4.89.89.89m0 74.41c.49 0 .89-.4.89-.89s-.4-.88-.89-.88-.89.4-.89.89.4.89.89.89m74.43-73.35c.49 0 .89-.4.89-.89s-.4-.88-.89-.88-.89.4-.89.88c0 .49.4.89.89.89m2.1 75.91c1.65 0 2.99-1.34 2.99-2.99 0-1.65-1.34-2.98-2.99-2.98-1.65 0-2.99 1.34-2.99 2.98 0 1.65 1.34 2.99 2.99 2.99m72.33-75.93c.49 0 .89-.4.89-.89s-.4-.88-.89-.88-.89.4-.89.88c0 .49.4.89.89.89m0 74.43c.49 0 .89-.4.89-.89s-.4-.88-.89-.88-.89.4-.89.89.4.89.89.89" />
      <g
         id="g30">
        <path
           id="path32"
           d="M976.9 66.348c.49 0 .89-.4.89-.89s-.4-.88-.89-.88-.89.4-.89.88c0 .49.4.89.89.89m0 74.41c.49 0 .89-.4.89-.89s-.4-.88-.89-.88-.89.4-.89.89.4.89.89.89m74.43-73.35c.49 0 .89-.4.89-.89s-.4-.88-.89-.88-.89.4-.89.88c0 .49.4.89.89.89m0 74.41c.49 0 .89-.4.89-.89s-.4-.88-.89-.88-.89.4-.89.89.4.89.89.89m74.43-74.44c.49 0 .89-.4.89-.89s-.4-.88-.89-.88-.89.4-.89.88c0 .49.4.89.89.89m0 74.43c.49 0 .89-.4.89-.89s-.4-.88-.89-.88-.89.4-.89.89.4.89.89.89" />
      </g>
      <g
         id="g34">
        <path
           id="path36"
           d="M1125.74 67.4158c.49 0 .89-.4.89-.89s-.4-.88-.89-.88-.89.4-.89.88c0 .49.4.89.89.89m0 74.41c.49 0 .89-.4.89-.89s-.4-.88-.89-.88-.89.4-.89.89.4.89.89.89m74.43-71.99c1.24 0 2.25-1.01 2.25-2.25s-1.01-2.25-2.25-2.25-2.25 1.01-2.25 2.25 1.01 2.25 2.25 2.25m0 73.05c.49 0 .89-.4.89-.89s-.4-.88-.89-.88-.89.4-.89.89.4.89.89.89m74.43-74.44c.49 0 .89-.4.89-.89s-.4-.88-.89-.88-.89.4-.89.88c0 .49.4.89.89.89m0 74.43c.49 0 .89-.4.89-.89s-.4-.88-.89-.88-.89.4-.89.89.4.89.89.89" />
      </g>
      <g
         id="g38">
        <path
           id="path40"
           d="M1274.41 68.7477c.49 0 .89-.4.89-.89s-.4-.88-.89-.88-.89.4-.89.88c0 .49.4.89.89.89m0 74.41c.49 0 .89-.4.89-.89s-.4-.88-.89-.88-.89.4-.89.89.4.89.89.89m74.43-73.35c.49 0 .89-.4.89-.89s-.4-.88-.89-.88-.89.4-.89.88c0 .49.4.89.89.89m0 74.41c.49 0 .89-.4.89-.89s-.4-.88-.89-.88-.89.4-.89.89.4.89.89.89m74.43-74.44c.49 0 .89-.4.89-.89s-.4-.88-.89-.88-.89.4-.89.88c0 .49.4.89.89.89m0 74.43c.49 0 .89-.4.89-.89s-.4-.88-.89-.88-.89.4-.89.89.4.89.89.89" />
      </g>
      <g
         id="g42">
        <path
           id="path44"
           d="M1423.21 69.7815c.49 0 .89-.4.89-.89s-.4-.88-.89-.88-.89.4-.89.88c0 .49.4.89.89.89m0 74.41c.49 0 .89-.4.89-.89s-.4-.88-.89-.88-.89.4-.89.89.4.89.89.89m74.43-73.35c.49 0 .89-.4.89-.89s-.4-.88-.89-.88-.89.4-.89.88c0 .49.4.89.89.89m0 74.41c.49 0 .89-.4.89-.89s-.4-.88-.89-.88-.89.4-.89.89.4.89.89.89m74.43-74.44c.49 0 .89-.4.89-.89s-.4-.88-.89-.88-.89.4-.89.88c0 .49.4.89.89.89m0 74.43c.49 0 .89-.4.89-.89s-.4-.88-.89-.88-.89.4-.89.89.4.89.89.89" />
      </g>
    </g>
    <g
       id="g46">
      <path
         id="path48"
         d="m 1168.8302,66.938 c -779.22013,88.708 -389.61007,44.354 0,0 z"
         inkscape:connector-curvature="0"
         sodipodi:nodetypes="cc" />
    </g>
    <g
       id="g50" />
    <path
       id="path54"
       d="m 1200.1,67.66 c 0.1334,0.03102 0.2654,0.06204 0.3982,0.08271 369.9461,78.24249 371.5718,77.51879 371.5718,77.51879"
       inkscape:connector-curvature="0"
       style="fill:none;stroke:#000000;stroke-width:1.30962694" />
    <g
       id="g56">
      <g
         id="g58"
         transform="matrix(1.25 0 0 -1.25 -10.37 737.73)"
         clip-path="url(#clipPath288-5-2)">
        <path
           id="path60"
           d="M120.25 535.04c.39 0 .71.32.71.71 0 .39-.32.71-.71.71-.39 0-.71-.32-.71-.71 0-.39.32-.71.71-.71" />
        <g
           id="g62">
          <path
             id="path64"
             d="M60.709 476.93c-.39 0-.71-.32-.71-.71 0-.39.32-.71.71-.71.39 0 .71.32.71.71 0 .39-.32.71-.71.71" />
        </g>
        <g
           id="g66">
          <path
             id="path68"
             d="M65.553 545.67c-.51 0-.96-.17-1.34-.52-.38-.35-.58-.76-.58-1.24v-6.39h-5.85v6.4c0 .48-.19.89-.56 1.24-.37.34-.83.51-1.36.51-.53 0-.98-.17-1.36-.52-.38-.35-.56-.76-.56-1.24v-16.3c0-.48.19-.89.56-1.25.37-.36.83-.53 1.36-.53.53 0 .98.18 1.36.54.37.36.56.77.56 1.25v6.39h5.85v-6.39c0-.48.19-.89.58-1.25.38-.36.83-.53 1.35-.53.53 0 .98.18 1.36.54.38.36.56.77.56 1.25v16.3c0 .48-.19.89-.58 1.24-.39.33-.84.5-1.35.5" />
        </g>
        <g
           id="g70">
          <path
             id="path72"
             d="M96.449 477.51c-.43.31-.97.47-1.61.47h-2.99c-.46 0-.86-.17-1.21-.51-.35-.34-.52-.75-.52-1.22 0-.48.17-.88.52-1.22.35-.34.75-.51 1.21-.51h1.43v-4.29c-.31-.16-.65-.3-1.02-.41-.37-.11-.79-.16-1.26-.16-1.23 0-2.08.35-2.57 1.04-.49.7-.73 1.63-.73 2.8v5.44c0 1.19.24 2.13.73 2.82s1.34 1.03 2.57 1.03c.44 0 .84-.06 1.21-.18s.72-.28 1.07-.48l.28-.16c.18-.11.35-.21.5-.29.15-.08.38-.12.69-.12.53 0 .97.17 1.31.49.34.33.51.72.51 1.16 0 .4-.16.78-.48 1.14-.32.36-.75.67-1.28.94-.53.26-1.14.48-1.81.63-.68.16-1.38.23-2.12.23-1.21 0-2.25-.17-3.13-.51-.9-.35-1.63-.83-2.21-1.46-.58-.64-1-1.4-1.28-2.29-.27-.88-.41-1.87-.41-2.95v-5.44c0-1.08.14-2.06.41-2.95.28-.89.7-1.65 1.28-2.28.58-.63 1.31-1.12 2.19-1.46.88-.34 1.92-.51 3.13-.51.72 0 1.44.07 2.17.21.73.14 1.4.36 2.01.66.6.3 1.1.69 1.48 1.15.39.47.58 1.02.58 1.66v6.07c0 .66-.22 1.15-.65 1.46" />
        </g>
        <g
           id="g74">
          <path
             id="path76"
             d="M100.81 515.43c-.21.14-.44.24-.69.3-.25.06-.49.1-.73.1-.42 0-.79-.12-1.11-.37-.32-.25-.53-.59-.64-1.03l-1.76-7c-.2-.77-.35-1.53-.45-2.29-.1-.76-.22-1.52-.37-2.29-.15.77-.26 1.53-.36 2.29-.09.76-.24 1.52-.44 2.29l-1.59 6.45c-.15.62-.37 1.12-.69 1.48-.31.37-.81.55-1.51.55-.75 0-1.27-.18-1.55-.53-.28-.36-.51-.85-.67-1.49l-1.62-6.45c-.18-.73-.32-1.49-.41-2.28-.09-.79-.21-1.55-.36-2.28-.15.77-.26 1.53-.36 2.29-.09.76-.24 1.51-.44 2.26l-1.81 7.08c-.11.46-.33.79-.67 1-.34.21-.71.32-1.11.32-.24 0-.48-.04-.73-.11s-.47-.18-.66-.33c-.19-.15-.35-.32-.48-.52s-.19-.43-.19-.69c.02-.05.03-.11.03-.16.04-.13.06-.25.08-.36l4.03-15.86c.13-.42.4-.81.81-1.18.41-.37.9-.55 1.47-.55.73 0 1.26.18 1.58.55.32.36.55.75.67 1.15l1.65 6.78c.18.71.32 1.44.41 2.18.09.74.2 1.48.33 2.21.13-.73.24-1.47.33-2.21.09-.74.23-1.47.41-2.18l1.62-6.72c.15-.46.4-.87.75-1.22.36-.36.87-.53 1.52-.53.66 0 1.16.17 1.51.52.35.35.6.75.74 1.21l4.12 16c.04.09.06.16.06.22v.14c0 .29-.07.54-.21.75-.13.2-.3.37-.51.51" />
        </g>
        <g
           id="g78">
          <path
             id="path80"
             d="M84.469 542.14h4.09v-14.53c0-.48.19-.9.57-1.25.38-.35.84-.53 1.38-.53.54 0 1 .18 1.38.53.38.35.57.77.57 1.25v14.53h4c.54 0 1 .17 1.39.52.39.34.58.76.58 1.24 0 .5-.2.92-.61 1.26-.42.34-.87.51-1.37.51h-11.98c-.28 0-.53-.06-.76-.17-.24-.11-.44-.25-.61-.43-.18-.17-.32-.36-.42-.57-.1-.2-.15-.4-.15-.61 0-.48.18-.89.55-1.23.37-.35.83-.52 1.39-.52" />
        </g>
        <g
           id="g82">
          <path
             id="path84"
             fill="#009a93"
             d="M125.25 466.29c-.37 0-.72.09-1.06.26-.34.17-.6.41-.78.7l-6.37 11.09v-10.26c.01-.48-.19-.9-.57-1.25-.39-.36-.84-.54-1.37-.54-.53 0-.98.18-1.34.54-.37.36-.55.77-.55 1.25v16.19c0 .53.19.97.56 1.33.38.36.86.54 1.44.54.37 0 .72-.09 1.06-.28.34-.18.61-.43.81-.74.6-1.06 1.16-2.03 1.66-2.91.5-.88 1-1.74 1.48-2.59.49-.85.98-1.73 1.5-2.63.51-.91 1.09-1.91 1.73-3v10.37c0 .48.19.89.58 1.25.39.36.84.54 1.37.54.53 0 .98-.18 1.35-.53.37-.36.55-.77.55-1.25v-16.19c-.02-.54-.21-.97-.58-1.34-.38-.37-.87-.55-1.47-.55" />
        </g>
        <g
           id="g86">
          <path
             id="path88"
             fill="#009a93"
             d="M118.32 514.15c0 .48.19.89.56 1.24.38.34.83.52 1.36.52.53 0 .98-.18 1.36-.52.37-.35.56-.76.56-1.24v-16.33c0-.48-.19-.89-.56-1.24-.37-.35-.83-.52-1.36-.52-.53 0-.98.18-1.36.52-.37.36-.56.77-.56 1.24v16.33z" />
        </g>
      </g>
    </g>
  </g>
  <g
     id="text4222"
     fill="#005652"
     fill-opacity="0"
     style="line-height:125%"
     font-size="40"
     font-family="sans-serif"
     letter-spacing="0"
     word-spacing="0">
    <path
       id="path4275"
       d="M1278.6305-259.7227q2.832.6055 4.414 2.5196 1.6016 1.914 1.6016 4.726 0 4.316-2.968 6.679-2.969 2.363-8.437 2.363-1.836 0-3.789-.371-1.933-.352-4.004-1.075v-3.809q1.641.957 3.594 1.445 1.953.488 4.082.488 3.711 0 5.645-1.465 1.953-1.465 1.953-4.258 0-2.578-1.816-4.024-1.797-1.465-5.019-1.465h-3.398v-3.242h3.555q2.91 0 4.453-1.153 1.543-1.172 1.543-3.359 0-2.246-1.601-3.438-1.582-1.211-4.551-1.211-1.621 0-3.476.352t-4.082 1.094v-3.516q2.246-.625 4.199-.938 1.973-.3127 3.711-.3127 4.492 0 7.109 2.0502 2.618 2.0313 2.618 5.508 0 2.422-1.386 4.1016-1.387 1.66-3.945 2.3047z" />
  </g>
  <g
     id="g4300"
     fill="#00aba3"
     letter-spacing="0"
     word-spacing="0">
    <g
       id="text4228"
       style="line-height:125%"
       font-size="40"
       font-family="sans-serif" />
    <g
       id="text4182"
       style="line-height:125%"
       font-size="18.1155"
       font-family="Bariol"
       font-weight="bold" />
  </g>
</svg>
